<svg width="1920" height="1140" viewBox="0 0 1920 1140" fill="none" xmlns="http://www.w3.org/2000/svg">
<g clip-path="url(#clip0_42_31)">
<rect width="1920" height="1140" fill="black"/>
<path d="M-215 -66H1107H1551L1435.29 12.6098C1338.25 78.5386 1232.37 130.411 1120.81 166.687C1056.71 187.528 991.023 203.126 924.399 213.327L917.267 214.419C812.793 230.416 706.787 233.93 601.483 224.887L498 216L437.612 205.605C357.093 191.746 274.407 197.785 196.756 223.198C165.66 233.375 135.636 246.573 107.113 262.603L21 311C-51.8587 343.308 -130.676 360 -210.377 360H-215V-66Z" fill="#121212"/>
<path d="M2872 1140H1550H1106L1215.2 1076.08C1316.65 1016.71 1425.3 970.603 1538.48 938.899C1601.08 921.364 1664.85 908.296 1729.3 899.794L1740.6 898.304C1844.59 884.586 1949.72 881.573 2054.32 889.312L2159 897.056L2221.91 906.386C2301.07 918.124 2381.82 912.966 2458.85 891.249C2490.89 882.216 2522.07 870.377 2552.03 855.87L2636 815.214C2709.05 787.307 2786.59 773 2864.79 773H2872V1140Z" fill="#121212"/>
<path d="M-266 -152H1056H1500L1384.29 -73.3902C1287.25 -7.46141 1181.37 44.4114 1069.81 80.6872C1005.71 101.528 940.023 117.126 873.399 127.327L866.267 128.419C761.793 144.416 655.787 147.93 550.483 138.887L447 130L386.612 119.605C306.093 105.746 223.407 111.785 145.756 137.198C114.66 147.375 84.6357 160.573 56.1127 176.603L-30 225C-102.859 257.308 -181.676 274 -261.377 274H-266V-152Z" fill="#181818"/>
<path d="M2923 1214H1601H1157L1266.2 1150.08C1367.65 1090.71 1476.3 1044.6 1589.48 1012.9C1652.08 995.364 1715.85 982.296 1780.3 973.794L1791.6 972.304C1895.59 958.586 2000.72 955.573 2105.32 963.312L2210 971.056L2272.91 980.386C2352.07 992.124 2432.82 986.966 2509.85 965.249C2541.89 956.216 2573.07 944.377 2603.03 929.87L2687 889.214C2760.05 861.307 2837.59 847 2915.79 847H2923V1214Z" fill="#181818"/>
<path d="M-300 -239H1022H1466L1350.29 -160.39C1253.25 -94.4614 1147.37 -42.5886 1035.81 -6.31279C971.708 14.528 906.023 30.126 839.399 40.3274L832.267 41.4194C727.793 57.4164 621.787 60.9302 516.483 51.8869L413 43L352.612 32.6053C272.093 18.7455 189.407 24.7851 111.756 50.198C80.6602 60.3748 50.6357 73.573 22.1127 89.6033L-64 138C-136.859 170.308 -215.676 187 -295.377 187H-300V-239Z" fill="#1C1C1C"/>
<path d="M2957 1289H1635H1191L1300.2 1225.08C1401.65 1165.71 1510.3 1119.6 1623.48 1087.9C1686.08 1070.36 1749.85 1057.3 1814.3 1048.79L1825.6 1047.3C1929.59 1033.59 2034.72 1030.57 2139.32 1038.31L2244 1046.06L2306.91 1055.39C2386.07 1067.12 2466.82 1061.97 2543.85 1040.25C2575.89 1031.22 2607.07 1019.38 2637.03 1004.87L2721 964.214C2794.05 936.307 2871.59 922 2949.79 922H2957V1289Z" fill="#1C1C1C"/>
</g>
<defs>
<clipPath id="clip0_42_31">
<rect width="1920" height="1140" fill="white"/>
</clipPath>
</defs>
</svg>
