<svg width="362" height="744" viewBox="0 0 362 744" fill="none" xmlns="http://www.w3.org/2000/svg">
<path d="M367 -35.6318L367 547.78V743.721L276.287 675.324C234.869 644.096 199.413 605.664 171.616 561.87L163.939 549.776C147.766 524.295 135.18 496.707 126.536 467.791C112.152 419.668 108.991 368.888 117.295 319.353L122.056 290.953C123.388 283.012 125.345 275.188 127.91 267.555L129.633 262.426C143.266 221.853 137.795 177.29 114.751 141.221C108.061 130.75 100.021 121.206 90.8376 112.836L42.2136 68.5173L36.2488 61.6269C12.8685 34.6181 0 0.0908699 0 -35.6318L367 -35.6318Z" fill="#121212"/>
<path d="M440.53 -59.3721L440.53 524.04V719.981L349.816 651.584C308.399 620.355 272.943 581.924 245.146 538.13L237.469 526.035C221.296 500.554 208.71 472.967 200.066 444.05C185.682 395.928 182.52 345.148 190.825 295.613L195.586 267.213C196.917 259.271 198.875 251.447 201.44 243.814L203.163 238.685C216.796 198.113 211.324 153.55 188.281 117.481C181.591 107.01 173.551 97.4662 164.367 89.096L115.743 44.7771L109.779 37.8866C86.3983 10.8779 73.5298 -23.6494 73.5298 -59.3721L440.53 -59.3721Z" fill="#181818"/>
<path d="M515.224 -75V508.412L515.224 704.353L424.51 635.956C383.093 604.727 347.637 566.296 319.839 522.502L312.163 510.407C295.989 484.926 283.403 457.339 274.76 428.422C260.376 380.3 257.214 329.52 265.519 279.985L270.28 251.585C271.611 243.643 273.568 235.819 276.133 228.186L277.857 223.058C291.49 182.485 286.018 137.922 262.975 101.853C256.285 91.3821 248.244 81.8383 239.061 73.4681L190.437 29.1491L184.472 22.2587C161.092 -4.75005 148.224 -39.2773 148.224 -75L515.224 -75Z" fill="#1C1C1C"/>
</svg>
