<svg width="27" height="27" viewBox="0 0 27 27" fill="none" xmlns="http://www.w3.org/2000/svg">
<path fill-rule="evenodd" clip-rule="evenodd" d="M9.91327 3.30553C8.1605 3.30553 6.47951 4.00179 5.24011 5.24113C4.00071 6.48047 3.30442 8.16137 3.30442 9.91406C3.30442 11.6668 4.00071 13.3477 5.24011 14.587C6.47951 15.8263 8.1605 16.5226 9.91327 16.5226C11.666 16.5226 13.347 15.8263 14.5864 14.587C15.8258 13.3477 16.5221 11.6668 16.5221 9.91406C16.5221 8.16137 15.8258 6.48047 14.5864 5.24113C13.347 4.00179 11.666 3.30553 9.91327 3.30553ZM1.87462e-07 9.91406C-0.000198909 8.35396 0.367853 6.81584 1.07422 5.42479C1.78059 4.03374 2.80533 2.82905 4.0651 1.9087C5.32486 0.988338 6.78409 0.378303 8.32409 0.128204C9.86409 -0.121894 11.4414 -0.00499356 12.9277 0.469398C14.414 0.94379 15.7673 1.76228 16.8776 2.85829C17.9879 3.95431 18.8239 5.2969 19.3174 6.77688C19.811 8.25686 19.9482 9.83244 19.718 11.3755C19.4878 12.9185 18.8967 14.3854 17.9926 15.6569L25.9513 23.6152C26.2523 23.9268 26.4188 24.3441 26.415 24.7773C26.4113 25.2105 26.2375 25.6249 25.9312 25.9312C25.6248 26.2375 25.2104 26.4113 24.7772 26.415C24.344 26.4188 23.9267 26.2523 23.6151 25.9513L15.658 17.9946C14.1749 19.0492 12.4302 19.6751 10.6149 19.8039C8.79969 19.9327 6.98402 19.5594 5.36688 18.7248C3.74974 17.8903 2.39354 16.6267 1.44688 15.0726C0.500224 13.5185 -0.000353657 11.7338 1.87462e-07 9.91406Z" fill="#111928"/>
</svg>
